<svg width="61" height="61" viewBox="0 0 61 61" fill="none" xmlns="http://www.w3.org/2000/svg">
<circle cx="30.375" cy="30.375" r="30.0713" fill="#FBFBFB" stroke="#800020" stroke-width="0.6075"/>
<path d="M34.4148 38.0214V39.3275H27.8842V22.7427L20.4727 37.4746H18.4679L11.0868 22.7427V39.3275H4.55615V38.0214H7.50253V18.0954H13.0915L19.5007 31.43L25.9098 18.0954H31.4684V38.0214H34.4148Z" fill="#800020"/>
<path d="M56.8316 38.0214V39.3275H34.4756V38.0214H41.2188C39.6191 37.0696 38.3535 35.7736 37.422 34.1334C36.5107 32.4931 36.0551 30.6402 36.0551 28.5747C36.0551 25.4562 37.1283 22.844 39.2748 20.738C41.4416 18.632 44.1652 17.579 47.4457 17.579C50.7465 17.579 53.5005 18.794 55.7077 21.224L53.4296 23.7147C52.4171 22.7427 51.4552 22.0644 50.544 21.6796C49.653 21.2949 48.6 21.1025 47.385 21.1025C45.2385 21.1025 43.4362 21.8011 41.9782 23.1984C40.5202 24.5754 39.7912 26.3472 39.7912 28.514C39.7912 30.6605 40.5101 32.4627 41.9478 33.9207C43.4058 35.3585 45.1271 36.0774 47.1116 36.0774C48.3468 36.0774 49.41 35.8749 50.301 35.4699C51.192 35.0446 52.1235 34.3764 53.0955 33.4651L55.404 35.8344C54.513 36.8064 53.6625 37.5354 52.8525 38.0214H56.8316Z" fill="#6B5A00"/>
<line x1="4.25244" y1="38.88" x2="34.6274" y2="38.88" stroke="#6B5A00" stroke-width="1.215"/>
<path d="M17.9334 42.2489C18.1278 42.2489 18.3009 42.2899 18.4528 42.3719C18.6046 42.4509 18.7246 42.5708 18.8127 42.7318C18.9008 42.8928 18.9448 43.0887 18.9448 43.3196V44.7913H18.5348V43.3788C18.5348 43.1297 18.4725 42.9399 18.348 42.8093C18.2265 42.6756 18.0609 42.6088 17.8513 42.6088C17.6357 42.6088 17.4641 42.6787 17.3365 42.8184C17.2089 42.9551 17.1451 43.154 17.1451 43.4153V44.7913H16.7351V43.3788C16.7351 43.1297 16.6728 42.9399 16.5483 42.8093C16.4268 42.6756 16.2612 42.6088 16.0516 42.6088C15.836 42.6088 15.6643 42.6787 15.5368 42.8184C15.4092 42.9551 15.3454 43.154 15.3454 43.4153V44.7913H14.9308V42.2944H15.3454V42.6544C15.4274 42.5238 15.5368 42.4235 15.6735 42.3537C15.8132 42.2838 15.9666 42.2489 16.1336 42.2489C16.3432 42.2489 16.5285 42.296 16.6895 42.3901C16.8505 42.4843 16.9705 42.6225 17.0494 42.8047C17.1193 42.6286 17.2347 42.4919 17.3957 42.3947C17.5567 42.2975 17.7359 42.2489 17.9334 42.2489ZM19.4701 43.5337C19.4701 43.2786 19.5217 43.0553 19.625 42.864C19.7282 42.6696 19.8695 42.5192 20.0487 42.4129C20.231 42.3066 20.4329 42.2534 20.6547 42.2534C20.8734 42.2534 21.0632 42.3005 21.2242 42.3947C21.3852 42.4888 21.5052 42.6073 21.5842 42.7501V42.2944H22.0033V44.7913H21.5842V44.3265C21.5021 44.4723 21.3791 44.5938 21.2151 44.691C21.0541 44.7852 20.8658 44.8323 20.6501 44.8323C20.4284 44.8323 20.2279 44.7776 20.0487 44.6682C19.8695 44.5589 19.7282 44.4055 19.625 44.2081C19.5217 44.0106 19.4701 43.7858 19.4701 43.5337ZM21.5842 43.5383C21.5842 43.35 21.5462 43.1859 21.4703 43.0462C21.3943 42.9065 21.291 42.8002 21.1604 42.7273C21.0329 42.6513 20.8916 42.6134 20.7367 42.6134C20.5818 42.6134 20.4405 42.6498 20.313 42.7227C20.1854 42.7956 20.0836 42.9019 20.0077 43.0417C19.9318 43.1814 19.8938 43.3454 19.8938 43.5337C19.8938 43.7251 19.9318 43.8922 20.0077 44.0349C20.0836 44.1746 20.1854 44.2825 20.313 44.3584C20.4405 44.4313 20.5818 44.4678 20.7367 44.4678C20.8916 44.4678 21.0329 44.4313 21.1604 44.3584C21.291 44.2825 21.3943 44.1746 21.4703 44.0349C21.5462 43.8922 21.5842 43.7266 21.5842 43.5383ZM23.72 42.6362H23.1961V44.7913H22.7815V42.6362H22.458V42.2944H22.7815V42.1167C22.7815 41.8373 22.8528 41.6338 22.9956 41.5062C23.1414 41.3756 23.3738 41.3103 23.6927 41.3103V41.6566C23.5105 41.6566 23.3814 41.693 23.3054 41.7659C23.2325 41.8358 23.1961 41.9527 23.1961 42.1167V42.2944H23.72V42.6362ZM25.2924 44.8323C25.0585 44.8323 24.8459 44.7791 24.6545 44.6728C24.4662 44.5665 24.3174 44.4161 24.208 44.2217C24.1017 44.0243 24.0486 43.7965 24.0486 43.5383C24.0486 43.2831 24.1032 43.0584 24.2126 42.864C24.325 42.6665 24.4768 42.5162 24.6682 42.4129C24.8596 42.3066 25.0737 42.2534 25.3106 42.2534C25.5476 42.2534 25.7617 42.3066 25.9531 42.4129C26.1444 42.5162 26.2948 42.665 26.4041 42.8594C26.5165 43.0538 26.5727 43.2801 26.5727 43.5383C26.5727 43.7965 26.515 44.0243 26.3996 44.2217C26.2872 44.4161 26.1338 44.5665 25.9394 44.6728C25.745 44.7791 25.5293 44.8323 25.2924 44.8323ZM25.2924 44.4678C25.4412 44.4678 25.581 44.4328 25.7116 44.363C25.8422 44.2931 25.947 44.1883 26.026 44.0486C26.108 43.9089 26.149 43.7388 26.149 43.5383C26.149 43.3378 26.1095 43.1677 26.0305 43.028C25.9515 42.8883 25.8483 42.785 25.7207 42.7182C25.5931 42.6483 25.4549 42.6134 25.3061 42.6134C25.1542 42.6134 25.0145 42.6483 24.8869 42.7182C24.7624 42.785 24.6621 42.8883 24.5862 43.028C24.5103 43.1677 24.4723 43.3378 24.4723 43.5383C24.4723 43.7418 24.5087 43.9134 24.5816 44.0531C24.6576 44.1929 24.7578 44.2977 24.8823 44.3675C25.0069 44.4344 25.1436 44.4678 25.2924 44.4678ZM28.3344 42.2489C28.6381 42.2489 28.8842 42.3415 29.0725 42.5268C29.2608 42.7091 29.355 42.9733 29.355 43.3196V44.7913H28.9449V43.3788C28.9449 43.1297 28.8827 42.9399 28.7581 42.8093C28.6336 42.6756 28.4635 42.6088 28.2478 42.6088C28.0291 42.6088 27.8545 42.6772 27.7238 42.8138C27.5963 42.9505 27.5325 43.1495 27.5325 43.4107V44.7913H27.1179V42.2944H27.5325V42.6498C27.6145 42.5222 27.7254 42.4235 27.8651 42.3537C28.0079 42.2838 28.1643 42.2489 28.3344 42.2489ZM31.0921 43.5383C31.0921 43.2801 31.1437 43.0553 31.247 42.864C31.3502 42.6696 31.493 42.5192 31.6753 42.4129C31.8605 42.3066 32.0716 42.2534 32.3086 42.2534C32.6154 42.2534 32.8675 42.3278 33.0649 42.4767C33.2654 42.6255 33.3975 42.8321 33.4613 43.0963H33.0148C32.9723 42.9445 32.8887 42.8245 32.7642 42.7364C32.6427 42.6483 32.4908 42.6043 32.3086 42.6043C32.0716 42.6043 31.8803 42.6863 31.7345 42.8503C31.5887 43.0113 31.5158 43.2406 31.5158 43.5383C31.5158 43.839 31.5887 44.0714 31.7345 44.2354C31.8803 44.3994 32.0716 44.4814 32.3086 44.4814C32.4908 44.4814 32.6427 44.4389 32.7642 44.3539C32.8857 44.2688 32.9692 44.1473 33.0148 43.9894H33.4613C33.3945 44.2445 33.2608 44.4495 33.0604 44.6045C32.8599 44.7563 32.6093 44.8323 32.3086 44.8323C32.0716 44.8323 31.8605 44.7791 31.6753 44.6728C31.493 44.5665 31.3502 44.4161 31.247 44.2217C31.1437 44.0273 31.0921 43.7995 31.0921 43.5383ZM35.2538 42.2489C35.4422 42.2489 35.6123 42.2899 35.7641 42.3719C35.916 42.4509 36.0345 42.5708 36.1195 42.7318C36.2076 42.8928 36.2516 43.0887 36.2516 43.3196V44.7913H35.8416V43.3788C35.8416 43.1297 35.7793 42.9399 35.6548 42.8093C35.5302 42.6756 35.3601 42.6088 35.1445 42.6088C34.9258 42.6088 34.7511 42.6772 34.6205 42.8138C34.4929 42.9505 34.4292 43.1495 34.4292 43.4107V44.7913H34.0145V41.4196H34.4292V42.6498C34.5112 42.5222 34.6236 42.4235 34.7663 42.3537C34.9121 42.2838 35.0746 42.2489 35.2538 42.2489ZM36.774 43.5337C36.774 43.2786 36.8257 43.0553 36.9289 42.864C37.0322 42.6696 37.1734 42.5192 37.3527 42.4129C37.5349 42.3066 37.7369 42.2534 37.9586 42.2534C38.1773 42.2534 38.3672 42.3005 38.5282 42.3947C38.6892 42.4888 38.8091 42.6073 38.8881 42.7501V42.2944H39.3073V44.7913H38.8881V44.3265C38.8061 44.4723 38.6831 44.5938 38.5191 44.691C38.3581 44.7852 38.1697 44.8323 37.9541 44.8323C37.7323 44.8323 37.5319 44.7776 37.3527 44.6682C37.1734 44.5589 37.0322 44.4055 36.9289 44.2081C36.8257 44.0106 36.774 43.7858 36.774 43.5337ZM38.8881 43.5383C38.8881 43.35 38.8501 43.1859 38.7742 43.0462C38.6983 42.9065 38.595 42.8002 38.4644 42.7273C38.3368 42.6513 38.1956 42.6134 38.0407 42.6134C37.8857 42.6134 37.7445 42.6498 37.6169 42.7227C37.4893 42.7956 37.3876 42.9019 37.3117 43.0417C37.2357 43.1814 37.1977 43.3454 37.1977 43.5337C37.1977 43.7251 37.2357 43.8922 37.3117 44.0349C37.3876 44.1746 37.4893 44.2825 37.6169 44.3584C37.7445 44.4313 37.8857 44.4678 38.0407 44.4678C38.1956 44.4678 38.3368 44.4313 38.4644 44.3584C38.595 44.2825 38.6983 44.1746 38.7742 44.0349C38.8501 43.8922 38.8881 43.7266 38.8881 43.5383ZM40.4226 42.6999C40.4955 42.5572 40.5988 42.4463 40.7324 42.3673C40.8691 42.2884 41.0346 42.2489 41.229 42.2489V42.6772H41.1197C40.6549 42.6772 40.4226 42.9293 40.4226 43.4335V44.7913H40.008V42.2944H40.4226V42.6999ZM44.7102 42.2489C44.9046 42.2489 45.0778 42.2899 45.2296 42.3719C45.3815 42.4509 45.5015 42.5708 45.5896 42.7318C45.6777 42.8928 45.7217 43.0887 45.7217 43.3196V44.7913H45.3116V43.3788C45.3116 43.1297 45.2494 42.9399 45.1248 42.8093C45.0033 42.6756 44.8378 42.6088 44.6282 42.6088C44.4125 42.6088 44.2409 42.6787 44.1134 42.8184C43.9858 42.9551 43.922 43.154 43.922 43.4153V44.7913H43.5119V43.3788C43.5119 43.1297 43.4497 42.9399 43.3251 42.8093C43.2036 42.6756 43.0381 42.6088 42.8285 42.6088C42.6128 42.6088 42.4412 42.6787 42.3136 42.8184C42.1861 42.9551 42.1223 43.154 42.1223 43.4153V44.7913H41.7077V42.2944H42.1223V42.6544C42.2043 42.5238 42.3136 42.4235 42.4503 42.3537C42.59 42.2838 42.7434 42.2489 42.9105 42.2489C43.1201 42.2489 43.3054 42.296 43.4664 42.3901C43.6274 42.4843 43.7473 42.6225 43.8263 42.8047C43.8962 42.6286 44.0116 42.4919 44.1726 42.3947C44.3336 42.2975 44.5128 42.2489 44.7102 42.2489Z" fill="#4B2C20"/>
</svg>
